<svg xmlns="http://www.w3.org/2000/svg" width="76" height="48.397" viewBox="0 0 76 48.397">
  <g id="logo-dark" transform="translate(-139 -25)">
    <path id="Path_103" data-name="Path 103" d="M77.52,65.051a2.053,2.053,0,0,0,0,3.837V68.9L93.9,76.022V72.615L80.467,66.95,93.9,61.324V57.918L77.52,65.037Z" transform="translate(62.802 -17.725)" fill="#1a2930"/>
    <path id="Path_104" data-name="Path 104" d="M175.025,65.051v-.014l-16.381-7.119v3.406l13.434,5.665-13.434,5.626v3.407L175.025,68.9v-.015a2.053,2.053,0,0,0,0-3.837Z" transform="translate(38.653 -17.725)" fill="#1a2930"/>
    <path id="Path_105" data-name="Path 105" d="M125.613,55.718l.174,16.089,4.4-1.922-.009-11.21,3.833-1.666L134,69.543c.041.692-.416,3.407-2.429,4.3l-18.517,8.1V72.4l-4.39,1.916-.006,14.491.02-.008v.008l4.375-1.911h0l20.41-8.917c5.12-2.169,5.248-8.2,5.249-8.3l-.035-19.659Z" transform="translate(53.295 -15.411)" fill="#1a2930"/>
    <path id="Path_106" data-name="Path 106" d="M113.053,63.867l-.026-8.809A3.642,3.642,0,0,1,115,51.816L116.873,51l.024,15.044h0v.7h0V71.7l4.921-2.147L121.8,48.851l16.871-7.363-.008-5.056L113.49,47.4a8.293,8.293,0,0,0-4.849,7.695l.011,10.693Z" transform="translate(53.299 -11.432)" fill="#1a2930"/>
  </g>
</svg>
